# xmcd CD database file
#
# Track frame offsets:
#	150
#	22031
#	40057
#	55706
#	74925
#	85306
#	105624
#	123405
#	143612
#	167058
#	180878
#	196889
#	213455
#
# Disc length: 3196 seconds
#
# Revision: 9
# Processed by: cddbd v1.5.2PL0 Copyright (c) Steve Scherf et al.
# Submitted via: CDex 1.70beta2
#
DISCID=b40c7a0d
DTITLE=The Inchtabokatables - Too Loud
DYEAR=1998
DGENRE=Folk-Punk
TTITLE0=Red Skies
TTITLE1=Confined Love
TTITLE2=Selling Our Souls
TTITLE3=Destination
TTITLE4=Destination (Reprise)
TTITLE5=You Chained Me Up
TTITLE6=Too Loud
TTITLE7=Kiss Your Ear (six)
TTITLE8=Watch Out
TTITLE9=Chachoo-Choocha
TTITLE10=My Eyes
TTITLE11=Wer?
TTITLE12=Sleep Well
EXTD=YEAR: 1998
EXTT0=
EXTT1=
EXTT2=
EXTT3=
EXTT4=
EXTT5=
EXTT6=
EXTT7=
EXTT8=
EXTT9=
EXTT10=
EXTT11=
EXTT12=
PLAYORDER=
